<?xml version="1.0" encoding="utf-8"?>
<!-- Generator: Adobe Illustrator 16.0.4, SVG Export Plug-In . SVG Version: 6.00 Build 0)  -->
<!DOCTYPE svg PUBLIC "-//W3C//DTD SVG 1.1//EN" "http://www.w3.org/Graphics/SVG/1.1/DTD/svg11.dtd">
<svg version="1.1" xmlns="http://www.w3.org/2000/svg" xmlns:xlink="http://www.w3.org/1999/xlink" x="0px" y="0px" width="1024px"
	 height="490.9px" viewBox="0 0 1024 490.9" style="enable-background:new 0 0 1024 490.9;" xml:space="preserve">
<style type="text/css">
<![CDATA[
	.st0{opacity:0.2;fill:none;stroke:#00FF00;stroke-width:6;stroke-miterlimit:10;}
	.st1{fill:none;stroke:#000000;stroke-width:10;stroke-miterlimit:10;}
	.st2{fill:none;stroke:#00FF00;stroke-width:6;stroke-miterlimit:10;}
	.st3{fill:#CCCCCC;}
	.st4{display:inline;}
	.st5{display:none;}
]]>
</style>
<g id="DELETE_1_" class="st5">
	
		<image style="display:inline;overflow:visible;opacity:9.999999e-02;" width="4875" height="2393" xlink:href="../../../../../Desktop/trackPlan_14.png"  transform="matrix(0.2975 0 0 0.2975 8.0005 0)">
	</image>
</g>
<g id="Track">
	<rect x="411" y="323" class="st3" width="46" height="63"/>
	
		<rect x="641.6" y="267.8" transform="matrix(-0.5631 0.8264 -0.8264 -0.5631 1269.2885 -111.9019)" class="st3" width="45.2" height="23.7"/>
	<path class="st1" d="M27,227c0-93.7,75.3-170,169-170h409"/>
	<path class="st1" d="M47,227c0-82.8,66.2-150,149-150h409"/>
	<path class="st1" d="M66,227c0-72,58-130,130-130l409-1"/>
	<path class="st1" d="M196.6,462.9C103,462.9,27,386.7,27,293"/>
	<path class="st1" d="M196.6,443.3C113.8,443.3,47,375.8,47,293"/>
	<path class="st1" d="M196.6,423.7C124.7,423.7,66,365,66,293"/>
	<path class="st1" d="M989.2,204.4C989.2,110.7,913.7,35,820,35"/>
	<path class="st1" d="M969.6,204.4C969.6,121.6,902.8,55,820,55"/>
	<path class="st1" d="M820,74c72,0,129.9,58.1,129.9,130.1"/>
	<path class="st1" d="M989.2,204.1c0,93.7-75.6,169.9-169.2,169.9"/>
	<path class="st1" d="M969.6,204.1c0,82.8-66.8,149.9-149.6,149.9"/>
	<path class="st1" d="M949.9,204.1c0,72-58,129.9-129.9,129.9"/>
	<path class="st1" d="M196.6,423.7c36,0,68.6-14.6,92.2-38.2"/>
	<path class="st1" d="M196.6,443.3c41.4,0,78.9-16.8,106.1-44"/>
	<path class="st1" d="M196.6,462.9c46.9,0,89.3-19,120-49.7"/>
	<path class="st1" d="M410,374c-36.4,0-69.7,15.2-93.3,39.3"/>
	<path class="st1" d="M410,354c-41.8,0-80,17.8-107.2,45.4"/>
	<path class="st1" d="M544,232c41.8,0,80.1-16.7,107.3-44.3"/>
	<path class="st1" d="M410,334c-47.3,0-90.3,20.3-121.1,51.5"/>
	<g>
		<path class="st1" d="M605,57c17.5,0,34-3.3,49.2-9.6"/>
		<path class="st1" d="M605,77c20.1,0,39.2-4.2,56.7-11.4"/>
		<path class="st1" d="M605,96c22.8,0,44.4-4.1,64.2-12.3"/>
		<path class="st1" d="M718,74c-17.2,0-33.7,3.7-48.8,9.8"/>
		<path class="st1" d="M718,55c-19.9,0-38.9,3.6-56.3,10.6"/>
		<path class="st1" d="M718,35c-22.5,0-44.1,4.5-63.8,12.5"/>
	</g>
	<line class="st1" x1="718" y1="35" x2="820" y2="35"/>
	<line class="st1" x1="718" y1="55" x2="820" y2="55"/>
	<line class="st1" x1="450" y1="205" x2="553" y2="205"/>
	<line class="st1" x1="450" y1="186" x2="600" y2="186"/>
	<line class="st1" x1="173" y1="195" x2="320" y2="195"/>
	<line class="st1" x1="173" y1="213" x2="365" y2="213"/>
	<line class="st1" x1="233" y1="136" x2="529" y2="136"/>
	<line class="st1" x1="47" y1="227" x2="47" y2="293"/>
	<line class="st1" x1="27" y1="227" x2="27" y2="293"/>
	<path class="st1" d="M168.7,148.8c-43.3,17.9-75.6,51.5-92.2,91.6"/>
	<path class="st1" d="M233,136c-22.8,0-44.5,4.6-64.3,12.8"/>
	<path class="st1" d="M369.8,204.7c-16.1-6.7-33.3-9.6-49.8-9.7"/>
	<path class="st1" d="M553,205c19.1,0,34.8-3.8,50-10"/>
	<path class="st1" d="M689,204c0-72,59-130,131-130"/>
	<path class="st1" d="M689,204c0,72-58,130-130,130"/>
	<line class="st1" x1="718" y1="74" x2="820" y2="74"/>
	<line class="st1" x1="173" y1="232" x2="544" y2="232"/>
	<line class="st1" x1="410" y1="334" x2="820" y2="334"/>
	<line class="st1" x1="410" y1="354" x2="820" y2="354"/>
	<line class="st1" x1="410" y1="374" x2="820" y2="374"/>
	<line class="st1" x1="369.8" y1="204.7" x2="411.5" y2="221.9"/>
	<line class="st1" x1="651.3" y1="187.7" x2="691" y2="148"/>
	<path class="st1" d="M649,176c16.1-6.7,30.3-16.4,42-28"/>
	<line class="st1" x1="691" y1="148" x2="729.3" y2="110.6"/>
	<line class="st1" x1="603" y1="195" x2="649" y2="176"/>
	<path class="st1" d="M600,186c19.1,0,33.8-3.8,49-10"/>
	<line class="st1" x1="66" y1="227" x2="66" y2="293"/>
	<path class="st1" d="M76.5,240.4C69.8,256.5,66.1,273.5,66,290"/>
	<path class="st1" d="M411.5,221.9c16.1,6.7,33,10,49.5,10.1"/>
	<path class="st1" d="M414.4,223.1c-16.1-6.7-32.9-10-49.4-10.1"/>
	<line class="st1" x1="661.8" y1="364.2" x2="711.3" y2="343.7"/>
	<path class="st1" d="M613,354c19.1,0,32.6-3.6,47.8-9.8"/>
	<path class="st1" d="M613,374c19.1,0,33.6-3.6,48.8-9.8"/>
	<path class="st1" d="M663,374c19.1,0,35-4,50.2-10.2"/>
	<path class="st1" d="M507.2,364.1c17.6,7.3,34.4,9.8,50.8,9.9"/>
	<path class="st1" d="M558.4,344.2c17.6,7.3,31.1,9.8,47.6,9.9"/>
	<path class="st1" d="M763,354c-19.1,0-34.6,3.6-49.8,9.8"/>
	<path class="st1" d="M763,334c-19.1,0-36.6,3.4-51.8,9.7"/>
	<path class="st1" d="M711,334c-19.1,0-35,4-50.2,10.2"/>
	<path class="st1" d="M461,334c16.5,0.1,30.3,2.8,47.9,10.1l47.7,19.7c17.6,7.3,32.9,10.1,49.4,10.2"/>
	<path class="st1" d="M507.2,364.1c-17.6-7.3-29.7-10-46.2-10.1"/>
	<path class="st1" d="M558.3,344.1c-17.6-7.3-32.8-10-49.3-10.1"/>
</g>
<g id="Points">
	<g id="point-0">
		<path id="point-0-open" class="st2" d="M71.4,329.7c-3.3-11.5-5.1-23.7-5.1-36.3c0-17.5,3.6-36.8,9.8-52.1
			c5.3-12.9,12.3-25.1,20.7-36.5"/>
		<path id="point-0-closed" class="st2" d="M71.4,329.7c-3.4-11.6-5.1-21.6-5.1-34.3l0-68.4c0-9.4,1.1-19,3-27.9"/>
	</g>
	<g id="point-1">
		<g id="point-1-closed">
			<line class="st2" x1="558" y1="374" x2="479" y2="374"/>
			<line class="st2" x1="442" y1="354" x2="511" y2="354"/>
		</g>
		<path id="point-1-open" class="st2" d="M442,354l17,0.1c19.1,0,32.4,3.7,47.6,9.9s30.9,10,49.9,10h1.4"/>
	</g>
	<g id="point-2">
		<g id="point-2-closed">
			<line class="st2" x1="611" y1="374" x2="558" y2="374"/>
			<line class="st2" x1="442" y1="334" x2="507" y2="334"/>
		</g>
		<path id="point-2-open_2_" class="st2" d="M611,374c-19.1,0-37.8-3.6-53-9.8l-49.5-20.5c-15.2-6.2-30.4-9.7-49.4-9.7h-17"/>
	</g>
	<g id="point-3_1_">
		<path id="point-3-open_1_" class="st2" d="M507,334h3.2c19.1,0,34.2,3.9,49.4,10.1s32.3,9.9,51.4,9.9"/>
		<g id="point-3-closed">
			<g>
				<line class="st0" x1="611" y1="354" x2="555" y2="354"/>
				<line class="st2" x1="507" y1="334" x2="558" y2="334"/>
			</g>
			<g>
				<line class="st2" x1="611" y1="354" x2="555" y2="354"/>
				<line class="st2" x1="507" y1="334" x2="558" y2="334"/>
			</g>
		</g>
	</g>
	<g id="point-4_1_">
		<path id="point-4-open_1_" class="st2" d="M713,334h-3c-19.1,0-34.6,3.9-49.8,10.1S630.1,354,611,354"/>
		<g id="point-4-closed">
			<line class="st2" x1="611" y1="354" x2="664" y2="354"/>
			<line class="st2" x1="713" y1="334" x2="655" y2="334"/>
		</g>
	</g>
	<g id="point-5">
		<g id="point-5-closed">
			<line class="st2" x1="611" y1="374" x2="660" y2="374"/>
			<line class="st2" x1="777" y1="334" x2="713" y2="334"/>
		</g>
		<path id="point-5-open_2_" class="st2" d="M611,374c19.1,0,35.6-3.6,50.8-9.8l49.5-20.5c15.2-6.2,29.6-9.7,48.7-9.7h17"/>
	</g>
	<g id="point-6">
		<path id="point-6-open" class="st2" d="M777,354l-13.9,0.1c-19.1,0-34.7,3.7-49.9,9.9s-30.9,10-50,10H660"/>
		<g id="point-6-closed">
			<line class="st2" x1="660" y1="374" x2="741" y2="374"/>
			<line class="st2" x1="777" y1="354" x2="708" y2="354"/>
		</g>
	</g>
	<g id="point-7_1_">
		<g id="point-7-closed_1_">
			<path class="st2" d="M748,74h71.6c18.5,0,36.6,3.5,53.8,11.4"/>
			<line class="st2" x1="558" y1="334" x2="637" y2="334"/>
		</g>
		<g id="point-7-open_1_">
			<path class="st2" d="M747.4,95.9c37.6-25.2,85.4-28.3,125.9-10.1"/>
			<path class="st2" d="M680.1,251.4C661.3,299.8,614.2,334,559,334h-1"/>
		</g>
	</g>
</g>
<g id="Points_2">
	<g id="point-8">
		<path id="point-8-open" class="st2" d="M694.4,145.3l36.5-36.5c3.2-3.2,12.7-10.4,16.5-13"/>
		<path id="point-8-closed_1_" class="st2" d="M680.1,251.4c5.7-14.7,8.9-30.7,8.9-47.4c0-45,23.5-84.8,58.4-108.1"/>
	</g>
	<g id="point-11">
		<line id="point-11-closed" class="st2" x1="494" y1="232" x2="175" y2="232"/>
		<path id="point-11-open" class="st2" d="M413.8,223c16.1,6.7,30.8,8.9,47.2,9h83"/>
	</g>
	<g id="point-12">
		<path id="point-12-open" class="st2" d="M414,223c-16.1-6.7-32.5-10-48.9-10H175"/>
		<path id="point-12-closed_2_" class="st2" d="M414,223l-43.3-18.3c0,0-22.9-9.7-49.6-9.7H175"/>
	</g>
	<g id="point-9">
		<path id="point-9-open" class="st2" d="M648.8,176.1c15.2-6.4,29.1-14.4,42.6-27.9l3-2.9"/>
		<path id="point-9-closed" class="st2" d="M544,232c41.8,0,80.1-16.7,107.3-44.3l43.1-42.4"/>
	</g>
	<g id="point-10">
		<path id="point-10-open" class="st2" d="M649,176.1l-3.4,1.4c-17.6,7.3-33.1,8.5-49.5,8.5H452"/>
		<path id="point-10-closed" class="st2" d="M452,205h102.1c0,0,24.8-0.1,49.5-10.2l45.2-18.7"/>
	</g>
</g>
<g id="labels" class="st5">
	<g class="st4">
		<path d="M87.3,265.2v-1.7c0.8,0,1.3-0.1,1.7-0.2c0.5-0.1,0.9-0.3,1.2-0.7c0.2-0.2,0.4-0.5,0.5-0.9c0.1-0.2,0.1-0.4,0.1-0.5h2.1
			V274h-2.6v-8.8H87.3z"/>
	</g>
	<g class="st4">
		<path d="M505.2,396.8c0.4-0.8,1.2-1.7,2.5-2.7c1.2-0.8,1.9-1.4,2.2-1.8c0.5-0.6,0.8-1.2,0.8-1.8c0-0.5-0.1-1-0.4-1.3
			s-0.7-0.5-1.3-0.5c-0.8,0-1.3,0.3-1.6,0.9c-0.2,0.3-0.3,0.8-0.3,1.6h-2.4c0-1.1,0.2-2,0.6-2.6c0.7-1.3,1.9-1.9,3.6-1.9
			c1.3,0,2.4,0.4,3.2,1.1c0.8,0.7,1.2,1.7,1.2,3c0,0.9-0.3,1.8-0.8,2.5c-0.4,0.5-1,1-1.8,1.6l-1,0.7c-0.6,0.4-1.1,0.8-1.3,1
			s-0.4,0.4-0.6,0.7h5.6v2.2h-8.7C504.7,398.4,504.9,397.5,505.2,396.8z"/>
	</g>
	<g class="st4">
		<path d="M491,317.6c0,0.5,0.1,0.9,0.2,1.3c0.3,0.6,0.9,0.9,1.7,0.9c0.5,0,0.9-0.2,1.3-0.5c0.4-0.3,0.5-0.8,0.5-1.5
			c0-0.8-0.3-1.4-1-1.7c-0.4-0.2-1-0.2-1.8-0.2v-1.8c0.8,0,1.4-0.1,1.7-0.2c0.6-0.2,0.8-0.7,0.8-1.5c0-0.5-0.1-0.9-0.4-1.2
			c-0.3-0.3-0.7-0.5-1.2-0.5c-0.6,0-1,0.2-1.3,0.6c-0.3,0.4-0.4,0.9-0.4,1.5h-2.3c0-0.6,0.1-1.2,0.3-1.8c0.2-0.5,0.5-1,1-1.4
			c0.3-0.3,0.7-0.5,1.2-0.7s1-0.2,1.7-0.2c1.2,0,2.2,0.3,2.9,0.9c0.7,0.6,1.1,1.5,1.1,2.5c0,0.8-0.2,1.4-0.7,1.9
			c-0.3,0.3-0.6,0.5-0.9,0.7c0.2,0,0.6,0.2,1,0.6c0.6,0.6,1,1.4,1,2.4c0,1.1-0.4,2-1.1,2.8c-0.7,0.8-1.9,1.2-3.3,1.2
			c-1.8,0-3.1-0.6-3.8-1.8c-0.4-0.6-0.6-1.4-0.6-2.5H491z"/>
	</g>
	<g class="st4">
		<path d="M552,318.8h-1.4v2.7h-2.5v-2.7h-5v-2.2l4.7-7.7h2.8v8h1.4V318.8z M548.1,316.8v-5.5l-3.2,5.5H548.1z"/>
	</g>
	<g class="st4">
		<path d="M672.5,318.1c0.1,0.5,0.3,1,0.6,1.3c0.3,0.3,0.7,0.4,1.2,0.4c0.6,0,1.1-0.2,1.4-0.7s0.5-1,0.5-1.6c0-0.7-0.2-1.2-0.5-1.6
			s-0.8-0.7-1.4-0.7c-0.3,0-0.6,0-0.8,0.1c-0.4,0.1-0.7,0.4-0.9,0.8l-2.2-0.1l0.9-7h7v2.1h-5.2l-0.5,2.8c0.4-0.3,0.7-0.4,0.9-0.5
			c0.4-0.1,0.8-0.2,1.3-0.2c1.1,0,2,0.4,2.8,1.1c0.8,0.7,1.2,1.7,1.2,3.1c0,1.2-0.4,2.2-1.1,3.2s-1.9,1.4-3.4,1.4
			c-1.2,0-2.2-0.3-3-1c-0.8-0.7-1.2-1.6-1.3-2.8H672.5z"/>
	</g>
	<g class="st4">
		<path d="M729.2,312c0-0.2-0.1-0.4-0.2-0.7c-0.3-0.4-0.7-0.6-1.2-0.6c-0.8,0-1.4,0.5-1.7,1.4c-0.2,0.5-0.3,1.2-0.4,2.2
			c0.3-0.4,0.7-0.6,1.1-0.8s0.9-0.3,1.4-0.3c1.1,0,2.1,0.4,2.8,1.2c0.7,0.8,1.1,1.7,1.1,2.9c0,1.2-0.4,2.2-1.1,3.1s-1.8,1.4-3.3,1.4
			c-1.6,0-2.8-0.7-3.6-2c-0.6-1-0.9-2.4-0.9-4.1c0-1,0-1.8,0.1-2.4c0.1-1.1,0.4-2,0.9-2.7c0.4-0.6,0.8-1.1,1.4-1.5
			c0.6-0.4,1.3-0.6,2.1-0.6c1.2,0,2.1,0.3,2.8,0.9s1.1,1.4,1.2,2.4H729.2z M726.3,319.2c0.4,0.4,0.8,0.7,1.4,0.7
			c0.6,0,1-0.2,1.3-0.6c0.3-0.4,0.5-1,0.5-1.6c0-0.7-0.2-1.3-0.5-1.7s-0.8-0.6-1.3-0.6c-0.4,0-0.8,0.1-1.1,0.4
			c-0.5,0.4-0.7,1-0.7,1.8C725.7,318.2,725.9,318.7,726.3,319.2z"/>
	</g>
	<g class="st4">
		<path d="M706.6,388.7c-0.4,0.4-0.9,1-1.6,2s-1.2,1.9-1.7,2.9c-0.4,0.8-0.7,1.8-1,2.9s-0.4,2.1-0.4,2.8h-2.6
			c0.1-2.3,0.8-4.7,2.3-7.1c0.9-1.5,1.7-2.6,2.3-3.2h-6.3l0-2.2h9V388.7z"/>
	</g>
	<g class="st4">
		<path d="M595,308.9c0.3-0.6,0.8-1,1.4-1.3c-0.6-0.4-1-0.9-1.2-1.3s-0.3-0.9-0.3-1.3c0-0.9,0.3-1.7,1-2.4c0.7-0.7,1.7-1,3-1
			s2.3,0.3,3,1s1,1.4,1,2.4c0,0.4-0.1,0.9-0.3,1.3s-0.6,0.9-1.2,1.2c0.6,0.4,1.1,0.8,1.4,1.4c0.3,0.6,0.5,1.2,0.5,1.9
			c0,1.1-0.4,2-1.2,2.7c-0.8,0.8-1.9,1.1-3.3,1.1s-2.5-0.4-3.2-1.1c-0.7-0.8-1.1-1.7-1.1-2.7C594.5,310.1,594.6,309.5,595,308.9z
			 M597.6,312.1c0.3,0.3,0.8,0.5,1.3,0.5s1-0.2,1.3-0.5s0.5-0.8,0.5-1.5c0-0.7-0.2-1.1-0.5-1.5s-0.8-0.5-1.3-0.5s-1,0.2-1.3,0.5
			s-0.5,0.8-0.5,1.5C597.1,311.3,597.2,311.8,597.6,312.1z M597.7,306.3c0.3,0.3,0.7,0.4,1.2,0.4c0.5,0,0.9-0.1,1.2-0.4
			c0.3-0.3,0.4-0.7,0.4-1.1c0-0.5-0.1-0.9-0.4-1.2c-0.3-0.3-0.7-0.4-1.2-0.4c-0.5,0-0.9,0.1-1.2,0.4c-0.3,0.3-0.4,0.7-0.4,1.2
			C597.3,305.7,597.4,306,597.7,306.3z"/>
	</g>
</g>
</svg>
