<?xml version="1.0" encoding="utf-8"?>
<!-- Generator: Adobe Illustrator 16.0.4, SVG Export Plug-In . SVG Version: 6.00 Build 0)  -->
<!DOCTYPE svg PUBLIC "-//W3C//DTD SVG 1.1//EN" "http://www.w3.org/Graphics/SVG/1.1/DTD/svg11.dtd">
<svg version="1.1" xmlns="http://www.w3.org/2000/svg" xmlns:xlink="http://www.w3.org/1999/xlink" x="0px" y="0px" width="1024px"
	 height="700px" viewBox="0 0 1024 700" style="enable-background:new 0 0 1024 700;" xml:space="preserve">
<style type="text/css">
<![CDATA[
	.st0{fill:none;stroke:#000000;stroke-width:3;stroke-miterlimit:10;}
	.st1{fill:none;stroke:#000000;stroke-miterlimit:10;}
	.st2{fill:#FFFFFF;}
	.st3{display:inline;}
	.st4{display:none;}
]]>
</style>
<g id="base">
	<g>
		<path d="M511.9,113c32,0,63,6.3,92.2,18.6c28.2,11.9,53.6,29,75.3,50.8s38.9,47.1,50.8,75.3c12.4,29.2,18.6,60.3,18.6,92.2
			c0,32-6.3,63-18.6,92.2c-11.9,28.2-29,53.6-50.8,75.3s-47.1,38.9-75.3,50.8C575,580.7,543.9,587,511.9,587s-63-6.3-92.2-18.6
			c-28.2-11.9-53.6-29-75.3-50.8s-38.9-47.1-50.8-75.3C281.2,413,274.9,382,274.9,350c0-32,6.3-63,18.6-92.2
			c11.9-28.2,29-53.6,50.8-75.3s47.1-38.9,75.3-50.8C448.9,119.3,479.9,113,511.9,113 M511.9,107c-134.2,0-243,108.8-243,243
			c0,134.2,108.8,243,243,243c134.2,0,243-108.8,243-243C754.9,215.8,646.1,107,511.9,107L511.9,107z"/>
	</g>
	<circle class="st1" cx="512.4" cy="349.5" r="224.4"/>
	<circle class="st0" cx="512" cy="350" r="232.1"/>
	<circle cx="511.9" cy="350" r="73.6"/>
	<circle class="st2" cx="511.9" cy="350" r="44"/>
</g>
<g id="Layer_1">
	<g id="turn_x5F_track">
		<g>
			<path class="st2" d="M512,587.3c-11,0-22-0.8-33-2.2V115.5c11-1.5,22-2.2,33-2.2s22,0.8,33,2.2v469.5
				C534,586.5,523,587.3,512,587.3z"/>
			<path d="M512.5,113.8c10.8,0,21.5,0.7,32.5,2.2v468.6c-11,1.4-21.7,2.2-32.5,2.2s-22.5-0.7-32.5-2.2V116
				C490,114.5,501.7,113.8,512.5,113.8 M512.5,112.8c-11.4,0-22.5,0.8-33.5,2.3v470.4c11,1.5,22.1,2.3,33.5,2.3s22.5-0.8,33.5-2.3
				V115.1C535,113.6,523.9,112.8,512.5,112.8L512.5,112.8z"/>
		</g>
		<g>
			<rect x="492.4" y="574.4" width="39.3" height="4.6"/>
			<rect x="492.4" y="443.6" width="39.3" height="4.6"/>
			<rect x="492.4" y="433.5" width="39.3" height="4.6"/>
			<rect x="492.4" y="453.6" width="39.3" height="4.6"/>
			<rect x="492.4" y="463.7" width="39.3" height="4.6"/>
			<rect x="492.4" y="473.8" width="39.3" height="4.6"/>
			<rect x="492.4" y="483.8" width="39.3" height="4.6"/>
			<rect x="492.4" y="493.9" width="39.3" height="4.6"/>
			<rect x="492.4" y="503.9" width="39.3" height="4.6"/>
			<rect x="492.4" y="514" width="39.3" height="4.6"/>
			<rect x="492.4" y="524.1" width="39.3" height="4.6"/>
			<rect x="492.4" y="534.1" width="39.3" height="4.6"/>
			<rect x="492.4" y="544.2" width="39.3" height="4.6"/>
			<rect x="492.4" y="554.3" width="39.3" height="4.6"/>
			<rect x="492.4" y="564.3" width="39.3" height="4.6"/>
			<rect x="492.4" y="423.5" width="39.3" height="4.6"/>
			<rect x="492.4" y="413.4" width="39.3" height="4.6"/>
			<rect x="492.4" y="403.3" width="39.3" height="4.6"/>
			<rect x="492.4" y="393.3" width="39.3" height="4.6"/>
			<rect x="492.4" y="383.2" width="39.3" height="4.6"/>
			<rect x="492.4" y="373.1" width="39.3" height="4.6"/>
			<rect x="492.4" y="363.1" width="39.3" height="4.6"/>
			<rect x="492.4" y="353" width="39.3" height="4.6"/>
			<rect x="492.4" y="343" width="39.3" height="4.6"/>
			<rect x="492.4" y="332.9" width="39.3" height="4.6"/>
			<rect x="492.4" y="322.8" width="39.3" height="4.6"/>
			<rect x="492.4" y="312.8" width="39.3" height="4.6"/>
			<rect x="492.4" y="302.7" width="39.3" height="4.6"/>
			<rect x="492.4" y="292.6" width="39.3" height="4.6"/>
			<rect x="492.4" y="282.6" width="39.3" height="4.6"/>
			<rect x="492.4" y="272.5" width="39.3" height="4.6"/>
			<rect x="492.4" y="262.5" width="39.3" height="4.6"/>
			<rect x="492.4" y="252.4" width="39.3" height="4.6"/>
			<rect x="492.4" y="242.3" width="39.3" height="4.6"/>
			<rect x="492.4" y="232.3" width="39.3" height="4.6"/>
			<rect x="492.4" y="222.2" width="39.3" height="4.6"/>
			<rect x="492.4" y="212.2" width="39.3" height="4.6"/>
			<rect x="492.4" y="202.1" width="39.3" height="4.6"/>
			<rect x="492.4" y="192" width="39.3" height="4.6"/>
			<rect x="492.4" y="182" width="39.3" height="4.6"/>
			<rect x="492.4" y="171.9" width="39.3" height="4.6"/>
			<rect x="492.4" y="161.8" width="39.3" height="4.6"/>
			<rect x="492.4" y="151.8" width="39.3" height="4.6"/>
			<rect x="492.4" y="141.4" width="39.3" height="4.6"/>
			<rect x="492.4" y="131.5" width="39.3" height="4.6"/>
			<rect x="492.4" y="121.1" width="39.3" height="4.6"/>
			<rect x="492.4" y="110.6" width="39.3" height="4.6"/>
			<rect x="498.6" y="109.5" width="2" height="481"/>
			<rect x="523.9" y="109.5" width="2" height="481"/>
		</g>
	</g>
	<g id="connecting_x5F_track">
		<g>
			<rect x="492.3" y="659.9" width="39.3" height="4.6"/>
			<rect x="492.3" y="649.8" width="39.3" height="4.6"/>
			<rect x="492.3" y="639.8" width="39.3" height="4.6"/>
			<rect x="492.3" y="629.4" width="39.3" height="4.6"/>
			<rect x="492.3" y="619.5" width="39.3" height="4.6"/>
			<rect x="492.3" y="609.1" width="39.3" height="4.6"/>
			<rect x="492.3" y="598.6" width="39.3" height="4.6"/>
			<rect x="498.4" y="593" width="2" height="77.6"/>
			<rect x="523.8" y="593" width="2" height="77.6"/>
		</g>
	</g>
</g>
<g id="outer_x5F_track" class="st4">
	<g id="connecting_x5F_track_1_" class="st3">
		<g>
			<rect x="492.3" y="35.2" width="39.3" height="4.6"/>
			<rect x="492.3" y="45.2" width="39.3" height="4.6"/>
			<rect x="492.3" y="55.3" width="39.3" height="4.6"/>
			<rect x="492.3" y="65.6" width="39.3" height="4.6"/>
			<rect x="492.3" y="75.6" width="39.3" height="4.6"/>
			<rect x="492.3" y="85.9" width="39.3" height="4.6"/>
			<rect x="492.3" y="96.5" width="39.3" height="4.6"/>
			<rect x="523.5" y="29" width="2" height="77.6"/>
			<rect x="498.2" y="29" width="2" height="77.6"/>
		</g>
	</g>
	<g id="connecting_x5F_track_3_" class="st3">
		<g>
			<rect x="590.6" y="631.9" transform="matrix(0.2589 0.9659 -0.9659 0.2589 1068.6885 -89.7753)" width="4.6" height="39.3"/>
			<rect x="588" y="622.2" transform="matrix(0.2589 0.9659 -0.9659 0.2589 1057.4124 -94.4364)" width="4.6" height="39.3"/>
			<rect x="585.4" y="612.4" transform="matrix(0.2588 0.9659 -0.9659 0.2588 1046.1622 -99.0808)" width="4.6" height="39.3"/>
			<rect x="582.7" y="602.5" transform="matrix(0.2587 0.966 -0.966 0.2587 1034.5758 -103.8727)" width="4.6" height="39.3"/>
			<rect x="580.1" y="592.9" transform="matrix(0.2589 0.9659 -0.9659 0.2589 1023.2924 -108.5683)" width="4.6" height="39.3"/>
			<rect x="577.4" y="582.8" transform="matrix(0.2587 0.966 -0.966 0.2587 1011.7206 -113.3407)" width="4.6" height="39.3"/>
			<rect x="574.7" y="572.6" transform="matrix(0.2588 0.9659 -0.9659 0.2588 999.8143 -118.2803)" width="4.6" height="39.3"/>
			<rect x="534.1" y="624.4" transform="matrix(0.2588 0.9659 -0.9659 0.2588 1028.7502 -89.7865)" width="77.6" height="2"/>
			<rect x="558.5" y="617.9" transform="matrix(0.2588 0.9659 -0.9659 0.2588 1040.5562 -118.2875)" width="77.6" height="2"/>
		</g>
	</g>
	<g id="connecting_x5F_track_2_" class="st3">
		<g>
			<rect x="428.9" y="28.4" transform="matrix(-0.2587 -0.966 0.966 -0.2587 496.2401 477.007)" width="4.6" height="39.3"/>
			<rect x="431.5" y="38.1" transform="matrix(-0.2589 -0.9659 0.9659 -0.2589 490.1952 491.7458)" width="4.6" height="39.3"/>
			<rect x="434.1" y="47.9" transform="matrix(-0.2589 -0.9659 0.9659 -0.2589 484.1092 506.4953)" width="4.6" height="39.3"/>
			<rect x="436.7" y="57.8" transform="matrix(-0.2588 -0.9659 0.9659 -0.2588 477.7674 521.6545)" width="4.6" height="39.3"/>
			<rect x="439.3" y="67.4" transform="matrix(-0.2589 -0.9659 0.9659 -0.2589 471.7775 536.2136)" width="4.6" height="39.3"/>
			<rect x="442" y="77.5" transform="matrix(-0.259 -0.9659 0.9659 -0.259 465.5227 551.4321)" width="4.6" height="39.3"/>
			<rect x="444.7" y="87.7" transform="matrix(-0.259 -0.9659 0.9659 -0.259 459.1175 566.8988)" width="4.6" height="39.3"/>
			<rect x="412.3" y="73.2" transform="matrix(-0.2588 -0.9659 0.9659 -0.2588 496.2142 529.1349)" width="77.6" height="2"/>
			<rect x="387.8" y="79.7" transform="matrix(-0.2588 -0.9659 0.9659 -0.2588 459.0767 513.7492)" width="77.6" height="2"/>
		</g>
	</g>
	<g id="connecting_x5F_track_5_" class="st3">
		<g>
			<rect x="665.9" y="600.7" transform="matrix(0.5 0.866 -0.866 0.5 871.3345 -268.4926)" width="4.6" height="39.3"/>
			<rect x="660.9" y="592" transform="matrix(0.4999 0.8661 -0.8661 0.4999 861.3674 -268.4716)" width="4.6" height="39.3"/>
			<rect x="655.8" y="583.2" transform="matrix(0.4999 0.8661 -0.8661 0.4999 851.2908 -268.4742)" width="4.6" height="39.3"/>
			<rect x="650.7" y="574.3" transform="matrix(0.4999 0.8661 -0.8661 0.4999 840.9661 -268.473)" width="4.6" height="39.3"/>
			<rect x="645.7" y="565.7" transform="matrix(0.5 0.866 -0.866 0.5 830.9648 -268.4873)" width="4.6" height="39.3"/>
			<rect x="640.5" y="556.7" transform="matrix(0.4999 0.8661 -0.8661 0.4999 820.6469 -268.4741)" width="4.6" height="39.3"/>
			<rect x="635.2" y="547.6" transform="matrix(0.4998 0.8661 -0.8661 0.4998 810.1613 -268.4607)" width="4.6" height="39.3"/>
			<rect x="603.3" y="599.3" transform="matrix(0.5 0.866 -0.866 0.5 840.9484 -255.9634)" width="77.6" height="2"/>
			<rect x="625.3" y="586.6" transform="matrix(0.5 0.866 -0.866 0.5 840.9438 -281.3018)" width="77.6" height="2"/>
		</g>
	</g>
	<g id="connecting_x5F_track_4_" class="st3">
		<g>
			<rect x="353.5" y="59.6" transform="matrix(-0.4999 -0.8661 0.8661 -0.4999 465.0241 427.0984)" width="4.6" height="39.3"/>
			<rect x="358.6" y="68.3" transform="matrix(-0.5001 -0.866 0.866 -0.5001 465.0692 444.5104)" width="4.6" height="39.3"/>
			<rect x="363.6" y="77.1" transform="matrix(-0.5001 -0.866 0.866 -0.5001 465.0696 461.9398)" width="4.6" height="39.3"/>
			<rect x="368.8" y="86" transform="matrix(-0.5 -0.866 0.866 -0.5 465.0622 479.8461)" width="4.6" height="39.3"/>
			<rect x="373.7" y="94.6" transform="matrix(-0.5001 -0.866 0.866 -0.5001 465.0714 497.0508)" width="4.6" height="39.3"/>
			<rect x="378.9" y="103.6" transform="matrix(-0.5002 -0.8659 0.8659 -0.5002 465.1331 515.0206)" width="4.6" height="39.3"/>
			<rect x="384.2" y="112.7" transform="matrix(-0.5002 -0.8659 0.8659 -0.5002 465.1359 533.2952)" width="4.6" height="39.3"/>
			<rect x="343" y="98.3" transform="matrix(-0.5 -0.866 0.866 -0.5 486.748 479.7001)" width="77.6" height="2"/>
			<rect x="321.1" y="111" transform="matrix(-0.5 -0.866 0.866 -0.5 442.8671 479.6993)" width="77.6" height="2"/>
		</g>
	</g>
	<g id="connecting_x5F_track_7_" class="st3">
		<g>
			<rect x="730.6" y="551" transform="matrix(0.7072 0.707 -0.707 0.7072 618.0652 -351.0533)" width="4.6" height="39.3"/>
			<rect x="723.5" y="543.9" transform="matrix(0.707 0.7072 -0.7072 0.707 611.2278 -348.1414)" width="4.6" height="39.3"/>
			<rect x="716.4" y="536.8" transform="matrix(0.7071 0.7071 -0.7071 0.7071 603.9745 -345.1763)" width="4.6" height="39.3"/>
			<rect x="709.1" y="529.5" transform="matrix(0.707 0.7072 -0.7072 0.707 596.7998 -342.1669)" width="4.6" height="39.3"/>
			<rect x="702" y="522.5" transform="matrix(0.7072 0.707 -0.707 0.7072 589.5088 -339.2224)" width="4.6" height="39.3"/>
			<rect x="694.7" y="515.1" transform="matrix(0.707 0.7072 -0.7072 0.707 582.4304 -336.2158)" width="4.6" height="39.3"/>
			<rect x="687.2" y="507.7" transform="matrix(0.707 0.7072 -0.7072 0.707 574.9692 -333.1257)" width="4.6" height="39.3"/>
			<rect x="663.7" y="557.1" transform="matrix(0.7071 0.7071 -0.7071 0.7071 600.3896 -333.3123)" width="77.6" height="2"/>
			<rect x="681.6" y="539.2" transform="matrix(0.7071 0.7071 -0.7071 0.7071 592.9604 -351.2274)" width="77.6" height="2"/>
		</g>
	</g>
	<g id="connecting_x5F_track_6_" class="st3">
		<g>
			<rect x="288.8" y="109.3" transform="matrix(-0.707 -0.7072 0.7072 -0.707 405.7526 425.9855)" width="4.6" height="39.3"/>
			<rect x="295.9" y="116.4" transform="matrix(-0.7073 -0.7069 0.7069 -0.7073 412.979 443.1181)" width="4.6" height="39.3"/>
			<rect x="303.1" y="123.5" transform="matrix(-0.7073 -0.7069 0.7069 -0.7073 420.0963 460.2962)" width="4.6" height="39.3"/>
			<rect x="310.4" y="130.8" transform="matrix(-0.7071 -0.7072 0.7072 -0.7071 427.3112 477.976)" width="4.6" height="39.3"/>
			<rect x="317.4" y="137.8" transform="matrix(-0.7072 -0.7071 0.7071 -0.7072 434.3844 494.918)" width="4.6" height="39.3"/>
			<rect x="324.7" y="145.2" transform="matrix(-0.7072 -0.7071 0.7071 -0.7072 441.7261 512.6423)" width="4.6" height="39.3"/>
			<rect x="332.2" y="152.6" transform="matrix(-0.7073 -0.7069 0.7069 -0.7073 449.2686 530.6271)" width="4.6" height="39.3"/>
			<rect x="282.6" y="140.5" transform="matrix(-0.7071 -0.7071 0.7071 -0.7071 448.6623 468.958)" width="77.6" height="2"/>
			<rect x="264.7" y="158.5" transform="matrix(-0.7071 -0.7071 0.7071 -0.7071 405.4125 486.8743)" width="77.6" height="2"/>
		</g>
	</g>
	<g id="connecting_x5F_track_9_" class="st3">
		<g>
			<rect x="780.2" y="486.3" transform="matrix(0.8661 0.4999 -0.4999 0.8661 357.7479 -323.4213)" width="4.6" height="39.3"/>
			<rect x="771.5" y="481.3" transform="matrix(0.866 0.5001 -0.5001 0.866 354.2819 -319.8499)" width="4.6" height="39.3"/>
			<rect x="762.8" y="476.3" transform="matrix(0.866 0.5 -0.5 0.866 350.4706 -316.1008)" width="4.6" height="39.3"/>
			<rect x="753.9" y="471.1" transform="matrix(0.8659 0.5002 -0.5002 0.8659 346.8353 -312.3934)" width="4.6" height="39.3"/>
			<rect x="745.3" y="466.1" transform="matrix(0.8662 0.4997 -0.4997 0.8662 342.7973 -308.5525)" width="4.6" height="39.3"/>
			<rect x="736.3" y="461" transform="matrix(0.8658 0.5003 -0.5003 0.8658 339.5409 -305.0287)" width="4.6" height="39.3"/>
			<rect x="727.1" y="455.7" transform="matrix(0.866 0.5001 -0.5001 0.866 335.4721 -301.0619)" width="4.6" height="39.3"/>
			<rect x="711.1" y="500.7" transform="matrix(0.866 0.5 -0.5 0.866 351.3046 -307.7618)" width="77.6" height="2"/>
			<rect x="723.8" y="478.7" transform="matrix(0.866 0.5 -0.5 0.866 342.0203 -317.0306)" width="77.6" height="2"/>
		</g>
	</g>
	<g id="connecting_x5F_track_8_" class="st3">
		<g>
			<rect x="239.2" y="174" transform="matrix(-0.866 -0.5001 0.5001 -0.866 353.7662 482.0752)" width="4.6" height="39.3"/>
			<rect x="247.9" y="179" transform="matrix(-0.8661 -0.4998 0.4998 -0.8661 367.5949 495.7867)" width="4.6" height="39.3"/>
			<rect x="256.6" y="184" transform="matrix(-0.8661 -0.4998 0.4998 -0.8661 381.3423 509.5317)" width="4.6" height="39.3"/>
			<rect x="265.6" y="189.2" transform="matrix(-0.866 -0.5 0.5 -0.866 395.3939 523.6783)" width="4.6" height="39.3"/>
			<rect x="274.2" y="194.2" transform="matrix(-0.866 -0.5 0.5 -0.866 408.9727 537.2456)" width="4.6" height="39.3"/>
			<rect x="283.2" y="199.4" transform="matrix(-0.866 -0.5 0.5 -0.866 423.1512 551.4305)" width="4.6" height="39.3"/>
			<rect x="292.3" y="204.6" transform="matrix(-0.8661 -0.4998 0.4998 -0.8661 437.627 565.8168)" width="4.6" height="39.3"/>
			<rect x="235.2" y="197" transform="matrix(-0.866 -0.5 0.5 -0.866 412.3913 506.4406)" width="77.6" height="2"/>
			<rect x="222.6" y="218.9" transform="matrix(-0.866 -0.5 0.5 -0.866 377.7823 541.052)" width="77.6" height="2"/>
		</g>
	</g>
	<g id="connecting_x5F_track_11_" class="st3">
		<g>
			<rect x="811.4" y="411" transform="matrix(0.966 0.2585 -0.2585 0.966 138.994 -195.7198)" width="4.6" height="39.3"/>
			<rect x="801.7" y="408.4" transform="matrix(0.9659 0.259 -0.259 0.9659 138.3058 -193.6343)" width="4.6" height="39.3"/>
			<rect x="792" y="405.8" transform="matrix(0.9659 0.259 -0.259 0.9659 137.275 -191.1789)" width="4.6" height="39.3"/>
			<rect x="782" y="403.1" transform="matrix(0.9659 0.2589 -0.2589 0.9659 136.2073 -188.649)" width="4.6" height="39.3"/>
			<rect x="772.4" y="400.5" transform="matrix(0.966 0.2585 -0.2585 0.966 134.9314 -185.9536)" width="4.6" height="39.3"/>
			<rect x="762.4" y="397.9" transform="matrix(0.9659 0.2589 -0.2589 0.9659 134.1436 -183.7125)" width="4.6" height="39.3"/>
			<rect x="752.2" y="395.1" transform="matrix(0.9659 0.259 -0.259 0.9659 133.1883 -181.2706)" width="4.6" height="39.3"/>
			<rect x="742.3" y="433.9" transform="matrix(0.9659 0.2588 -0.2588 0.9659 139.1854 -187.3612)" width="77.6" height="2"/>
			<rect x="748.9" y="409.4" transform="matrix(0.9659 0.2588 -0.2588 0.9659 133.0538 -189.8704)" width="77.6" height="2"/>
		</g>
	</g>
	<g id="connecting_x5F_track_10_" class="st3">
		<g>
			<rect x="208" y="249.3" transform="matrix(-0.9659 -0.259 0.259 -0.9659 343.7179 583.2239)" width="4.6" height="39.3"/>
			<rect x="217.7" y="251.9" transform="matrix(-0.966 -0.2587 0.2587 -0.966 362.2469 590.8182)" width="4.6" height="39.3"/>
			<rect x="227.4" y="254.5" transform="matrix(-0.966 -0.2586 0.2586 -0.966 380.7143 598.4374)" width="4.6" height="39.3"/>
			<rect x="237.4" y="257.2" transform="matrix(-0.9659 -0.2589 0.2589 -0.9659 399.5316 606.3359)" width="4.6" height="39.3"/>
			<rect x="247" y="259.8" transform="matrix(-0.9659 -0.2588 0.2588 -0.9659 417.7843 613.8486)" width="4.6" height="39.3"/>
			<rect x="257" y="262.4" transform="matrix(-0.9659 -0.2588 0.2588 -0.9659 436.8045 621.7278)" width="4.6" height="39.3"/>
			<rect x="267.2" y="265.2" transform="matrix(-0.966 -0.2587 0.2587 -0.966 456.1681 629.714)" width="4.6" height="39.3"/>
			<rect x="204" y="263.7" transform="matrix(-0.9659 -0.2588 0.2588 -0.9659 408.9088 583.2969)" width="77.6" height="2"/>
			<rect x="197.5" y="288.2" transform="matrix(-0.9659 -0.2588 0.2588 -0.9659 389.684 629.714)" width="77.6" height="2"/>
		</g>
	</g>
	<g id="connecting_x5F_track_23_" class="st3">
		<g>
			<rect x="822.1" y="330.2" width="4.6" height="39.3"/>
			<rect x="812" y="330.2" width="4.6" height="39.3"/>
			<rect x="802" y="330.2" width="4.6" height="39.3"/>
			<rect x="791.6" y="330.2" width="4.6" height="39.3"/>
			<rect x="781.7" y="330.2" width="4.6" height="39.3"/>
			<rect x="771.3" y="330.2" width="4.6" height="39.3"/>
			<rect x="760.8" y="330.2" width="4.6" height="39.3"/>
			<rect x="755.2" y="361.3" width="77.6" height="2"/>
			<rect x="755.2" y="336" width="77.6" height="2"/>
		</g>
	</g>
	<g id="connecting_x5F_track_22_" class="st3">
		<g>
			<rect x="197.3" y="330.2" width="4.6" height="39.3"/>
			<rect x="207.4" y="330.2" width="4.6" height="39.3"/>
			<rect x="217.5" y="330.2" width="4.6" height="39.3"/>
			<rect x="227.8" y="330.2" width="4.6" height="39.3"/>
			<rect x="237.7" y="330.2" width="4.6" height="39.3"/>
			<rect x="248.1" y="330.2" width="4.6" height="39.3"/>
			<rect x="258.7" y="330.2" width="4.6" height="39.3"/>
			<rect x="191.2" y="336.3" width="77.6" height="2"/>
			<rect x="191.2" y="361.6" width="77.6" height="2"/>
		</g>
	</g>
	<g id="connecting_x5F_track_21_" class="st3">
		<g>
			<rect x="811.4" y="249.3" transform="matrix(0.9659 -0.259 0.259 0.9659 -41.8956 219.9023)" width="4.6" height="39.3"/>
			<rect x="801.7" y="251.9" transform="matrix(0.9659 -0.2589 0.2589 0.9659 -42.8955 217.381)" width="4.6" height="39.3"/>
			<rect x="792" y="254.5" transform="matrix(0.9659 -0.2588 0.2588 0.9659 -43.8954 214.8731)" width="4.6" height="39.3"/>
			<rect x="782" y="257.2" transform="matrix(0.966 -0.2587 0.2587 0.966 -44.9205 212.2894)" width="4.6" height="39.3"/>
			<rect x="772.4" y="259.8" transform="matrix(0.9659 -0.2589 0.2589 0.9659 -45.9265 210.0639)" width="4.6" height="39.3"/>
			<rect x="762.4" y="262.4" transform="matrix(0.966 -0.2587 0.2587 0.966 -46.9487 207.3922)" width="4.6" height="39.3"/>
			<rect x="752.2" y="265.2" transform="matrix(0.9659 -0.2588 0.2588 0.9659 -48.0105 204.9378)" width="4.6" height="39.3"/>
			<rect x="748.8" y="287.9" transform="matrix(0.9659 -0.2588 0.2588 0.9659 -47.9453 213.7012)" width="77.6" height="2"/>
			<rect x="742.3" y="263.4" transform="matrix(0.9659 -0.2588 0.2588 0.9659 -41.8347 211.1751)" width="77.6" height="2"/>
		</g>
	</g>
	<g id="connecting_x5F_track_20_" class="st3">
		<g>
			<rect x="208" y="411" transform="matrix(-0.966 0.2585 -0.2585 -0.966 524.731 792.3445)" width="4.6" height="39.3"/>
			<rect x="217.7" y="408.4" transform="matrix(-0.9659 0.2589 -0.2589 -0.9659 543.2914 784.5983)" width="4.6" height="39.3"/>
			<rect x="227.4" y="405.8" transform="matrix(-0.9659 0.2589 -0.2589 -0.9659 561.7457 776.9436)" width="4.6" height="39.3"/>
			<rect x="237.4" y="403.1" transform="matrix(-0.9659 0.259 -0.259 -0.9659 580.6994 769.0795)" width="4.6" height="39.3"/>
			<rect x="247" y="400.5" transform="matrix(-0.9659 0.259 -0.259 -0.9659 598.8954 761.5442)" width="4.6" height="39.3"/>
			<rect x="257" y="397.9" transform="matrix(-0.9659 0.259 -0.259 -0.9659 617.9183 753.6606)" width="4.6" height="39.3"/>
			<rect x="267.2" y="395.1" transform="matrix(-0.9659 0.259 -0.259 -0.9659 637.2444 745.6539)" width="4.6" height="39.3"/>
			<rect x="197.5" y="409.7" transform="matrix(-0.9659 0.2588 -0.2588 -0.9659 570.9724 746.2405)" width="77.6" height="2"/>
			<rect x="204.1" y="434.2" transform="matrix(-0.9659 0.2588 -0.2588 -0.9659 590.2063 792.6517)" width="77.6" height="2"/>
		</g>
	</g>
	<g id="connecting_x5F_track_19_" class="st3">
		<g>
			<rect x="780.2" y="174" transform="matrix(0.866 -0.5 0.5 0.866 8.0187 417.1984)" width="4.6" height="39.3"/>
			<rect x="771.5" y="179" transform="matrix(0.866 -0.5 0.5 0.866 4.3364 413.516)" width="4.6" height="39.3"/>
			<rect x="762.8" y="184" transform="matrix(0.8661 -0.4999 0.4999 0.8661 0.6337 409.7622)" width="4.6" height="39.3"/>
			<rect x="753.9" y="189.2" transform="matrix(0.866 -0.5 0.5 0.866 -3.13 406.0495)" width="4.6" height="39.3"/>
			<rect x="745.3" y="194.2" transform="matrix(0.866 -0.5 0.5 0.866 -6.7715 402.3922)" width="4.6" height="39.3"/>
			<rect x="736.3" y="199.4" transform="matrix(0.866 -0.5 0.5 0.866 -10.5666 398.6127)" width="4.6" height="39.3"/>
			<rect x="727.1" y="204.6" transform="matrix(0.8661 -0.4998 0.4998 0.8661 -14.4596 394.6143)" width="4.6" height="39.3"/>
			<rect x="723.7" y="218.7" transform="matrix(0.866 -0.5 0.5 0.866 -7.6827 410.6793)" width="77.6" height="2"/>
			<rect x="711" y="196.7" transform="matrix(0.866 -0.5 0.5 0.866 1.5929 401.4095)" width="77.6" height="2"/>
		</g>
	</g>
	<g id="connecting_x5F_track_18_" class="st3">
		<g>
			<rect x="239.2" y="486.3" transform="matrix(-0.8661 0.4999 -0.4999 -0.8661 703.591 823.5139)" width="4.6" height="39.3"/>
			<rect x="247.9" y="481.3" transform="matrix(-0.8659 0.5002 -0.5002 -0.8659 717.4338 809.6251)" width="4.6" height="39.3"/>
			<rect x="256.6" y="476.3" transform="matrix(-0.8659 0.5002 -0.5002 -0.8659 731.1776 795.8782)" width="4.6" height="39.3"/>
			<rect x="265.6" y="471.1" transform="matrix(-0.866 0.5 -0.5 -0.866 745.233 781.8539)" width="4.6" height="39.3"/>
			<rect x="274.2" y="466.1" transform="matrix(-0.8659 0.5002 -0.5002 -0.8659 758.8632 768.1846)" width="4.6" height="39.3"/>
			<rect x="283.2" y="461" transform="matrix(-0.8658 0.5004 -0.5004 -0.8658 773.0886 753.9238)" width="4.6" height="39.3"/>
			<rect x="292.3" y="455.7" transform="matrix(-0.8658 0.5004 -0.5004 -0.8658 787.496 739.5093)" width="4.6" height="39.3"/>
			<rect x="222.7" y="479" transform="matrix(-0.866 0.5 -0.5 -0.866 727.9765 764.8817)" width="77.6" height="2"/>
			<rect x="235.4" y="500.9" transform="matrix(-0.866 0.5 -0.5 -0.866 762.5964 799.4822)" width="77.6" height="2"/>
		</g>
	</g>
	<g id="connecting_x5F_track_17_" class="st3">
		<g>
			<rect x="730.6" y="109.3" transform="matrix(0.7069 -0.7073 0.7073 0.7069 123.6106 556.176)" width="4.6" height="39.3"/>
			<rect x="723.5" y="116.4" transform="matrix(0.7073 -0.7069 0.7069 0.7073 116.2424 552.8622)" width="4.6" height="39.3"/>
			<rect x="716.4" y="123.5" transform="matrix(0.7072 -0.707 0.707 0.7072 109.1909 550.0071)" width="4.6" height="39.3"/>
			<rect x="709.1" y="130.8" transform="matrix(0.7072 -0.707 0.707 0.7072 101.8836 546.9782)" width="4.6" height="39.3"/>
			<rect x="702" y="137.8" transform="matrix(0.707 -0.7072 0.7072 0.707 94.9775 544.2531)" width="4.6" height="39.3"/>
			<rect x="694.7" y="145.2" transform="matrix(0.7072 -0.707 0.707 0.7072 87.5204 541.0284)" width="4.6" height="39.3"/>
			<rect x="687.2" y="152.6" transform="matrix(0.7071 -0.7071 0.7071 0.7071 80.1172 538.0303)" width="4.6" height="39.3"/>
			<rect x="681.4" y="158.3" transform="matrix(0.7071 -0.7071 0.7071 0.7071 98.3414 555.9688)" width="77.6" height="2"/>
			<rect x="663.5" y="140.3" transform="matrix(0.7071 -0.7071 0.7071 0.7071 105.7661 538.0568)" width="77.6" height="2"/>
		</g>
	</g>
	<g id="connecting_x5F_track_16_" class="st3">
		<g>
			<rect x="288.8" y="551" transform="matrix(-0.7072 0.707 -0.707 -0.7072 900.4922 768.4888)" width="4.6" height="39.3"/>
			<rect x="295.9" y="543.9" transform="matrix(-0.7069 0.7073 -0.7073 -0.7069 907.6807 751.0847)" width="4.6" height="39.3"/>
			<rect x="303.1" y="536.8" transform="matrix(-0.7069 0.7073 -0.7073 -0.7069 914.7941 733.9069)" width="4.6" height="39.3"/>
			<rect x="310.4" y="529.5" transform="matrix(-0.7072 0.7071 -0.7071 -0.7072 922.0485 716.4438)" width="4.6" height="39.3"/>
			<rect x="317.4" y="522.5" transform="matrix(-0.7071 0.7072 -0.7072 -0.7071 929.0989 699.3939)" width="4.6" height="39.3"/>
			<rect x="324.7" y="515.1" transform="matrix(-0.7071 0.7072 -0.7072 -0.7071 936.4403 681.67)" width="4.6" height="39.3"/>
			<rect x="332.2" y="507.7" transform="matrix(-0.7069 0.7073 -0.7073 -0.7069 943.9304 663.5212)" width="4.6" height="39.3"/>
			<rect x="264.9" y="539.3" transform="matrix(-0.7071 0.7071 -0.7071 -0.7071 900.6017 707.6965)" width="77.6" height="2"/>
			<rect x="282.8" y="557.3" transform="matrix(-0.7071 0.7071 -0.7071 -0.7071 943.8572 725.606)" width="77.6" height="2"/>
		</g>
	</g>
	<g id="connecting_x5F_track_15_" class="st3">
		<g>
			<rect x="665.9" y="59.6" transform="matrix(0.4999 -0.8661 0.8661 0.4999 265.4819 618.3632)" width="4.6" height="39.3"/>
			<rect x="660.9" y="68.3" transform="matrix(0.5001 -0.866 0.866 0.5001 255.2814 618.2565)" width="4.6" height="39.3"/>
			<rect x="655.8" y="77.1" transform="matrix(0.5 -0.866 0.866 0.5 245.3008 618.3209)" width="4.6" height="39.3"/>
			<rect x="650.7" y="86" transform="matrix(0.5 -0.866 0.866 0.5 234.9641 618.3197)" width="4.6" height="39.3"/>
			<rect x="645.7" y="94.6" transform="matrix(0.4997 -0.8662 0.8662 0.4997 225.192 618.4552)" width="4.6" height="39.3"/>
			<rect x="640.5" y="103.6" transform="matrix(0.5003 -0.8658 0.8658 0.5003 214.4641 618.1619)" width="4.6" height="39.3"/>
			<rect x="635.2" y="112.7" transform="matrix(0.5001 -0.866 0.866 0.5001 204.0454 618.2737)" width="4.6" height="39.3"/>
			<rect x="625" y="110.8" transform="matrix(0.5 -0.866 0.866 0.5 235.0519 630.8528)" width="77.6" height="2"/>
			<rect x="603.1" y="98.2" transform="matrix(0.5 -0.866 0.866 0.5 235.061 605.5222)" width="77.6" height="2"/>
		</g>
	</g>
	<g id="connecting_x5F_track_14_" class="st3">
		<g>
			<rect x="353.5" y="600.7" transform="matrix(-0.5001 0.866 -0.866 -0.5001 1070.9569 622.4215)" width="4.6" height="39.3"/>
			<rect x="358.6" y="592" transform="matrix(-0.4998 0.8661 -0.8661 -0.4998 1070.9572 604.7875)" width="4.6" height="39.3"/>
			<rect x="363.6" y="583.2" transform="matrix(-0.4998 0.8661 -0.8661 -0.4998 1070.9556 587.3597)" width="4.6" height="39.3"/>
			<rect x="368.8" y="574.3" transform="matrix(-0.5 0.866 -0.866 -0.5 1070.9576 569.6166)" width="4.6" height="39.3"/>
			<rect x="373.7" y="565.7" transform="matrix(-0.5 0.866 -0.866 -0.5 1070.9576 552.3901)" width="4.6" height="39.3"/>
			<rect x="378.9" y="556.7" transform="matrix(-0.5 0.866 -0.866 -0.5 1070.958 534.4167)" width="4.6" height="39.3"/>
			<rect x="384.2" y="547.6" transform="matrix(-0.4998 0.8661 -0.8661 -0.4998 1070.9486 516.0159)" width="4.6" height="39.3"/>
			<rect x="321.3" y="586.8" transform="matrix(-0.5 0.866 -0.866 -0.5 1049.2501 569.776)" width="77.6" height="2"/>
			<rect x="343.3" y="599.4" transform="matrix(-0.5 0.866 -0.866 -0.5 1093.1357 569.7717)" width="77.6" height="2"/>
		</g>
	</g>
	<g id="connecting_x5F_track_13_" class="st3">
		<g>
			<rect x="590.6" y="28.4" transform="matrix(0.2585 -0.966 0.966 0.2585 393.1348 608.3584)" width="4.6" height="39.3"/>
			<rect x="588" y="38.1" transform="matrix(0.259 -0.9659 0.9659 0.259 381.5348 612.9418)" width="4.6" height="39.3"/>
			<rect x="585.4" y="47.9" transform="matrix(0.259 -0.9659 0.9659 0.259 370.2383 617.6393)" width="4.6" height="39.3"/>
			<rect x="582.7" y="57.8" transform="matrix(0.2589 -0.9659 0.9659 0.2589 358.6417 622.4639)" width="4.6" height="39.3"/>
			<rect x="580.1" y="67.4" transform="matrix(0.2585 -0.966 0.966 0.2585 347.721 627.2018)" width="4.6" height="39.3"/>
			<rect x="577.4" y="77.5" transform="matrix(0.2589 -0.9659 0.9659 0.2589 335.8187 631.9424)" width="4.6" height="39.3"/>
			<rect x="574.7" y="87.7" transform="matrix(0.259 -0.9659 0.9659 0.259 323.8644 636.8159)" width="4.6" height="39.3"/>
			<rect x="558.3" y="79.7" transform="matrix(0.2588 -0.9659 0.9659 0.2588 364.6261 636.541)" width="77.6" height="2"/>
			<rect x="533.8" y="73.1" transform="matrix(0.2588 -0.9659 0.9659 0.2588 352.8391 608.0475)" width="77.6" height="2"/>
		</g>
	</g>
	<g id="connecting_x5F_track_12_" class="st3">
		<g>
			<rect x="428.9" y="631.9" transform="matrix(-0.259 0.9659 -0.9659 -0.259 1172.1299 403.827)" width="4.6" height="39.3"/>
			<rect x="431.5" y="622.2" transform="matrix(-0.2587 0.966 -0.966 -0.2587 1165.9448 388.8496)" width="4.6" height="39.3"/>
			<rect x="434.1" y="612.4" transform="matrix(-0.2586 0.966 -0.966 -0.2586 1159.8083 374.0258)" width="4.6" height="39.3"/>
			<rect x="436.7" y="602.5" transform="matrix(-0.2589 0.9659 -0.9659 -0.2589 1153.6257 359.141)" width="4.6" height="39.3"/>
			<rect x="439.3" y="592.9" transform="matrix(-0.2588 0.9659 -0.9659 -0.2588 1147.5513 344.4602)" width="4.6" height="39.3"/>
			<rect x="442" y="582.8" transform="matrix(-0.2588 0.9659 -0.9659 -0.2588 1141.2474 329.2448)" width="4.6" height="39.3"/>
			<rect x="444.7" y="572.6" transform="matrix(-0.2587 0.966 -0.966 -0.2587 1134.8123 313.7082)" width="4.6" height="39.3"/>
			<rect x="388.1" y="618" transform="matrix(-0.2588 0.9659 -0.9659 -0.2588 1135.2847 366.8201)" width="77.6" height="2"/>
			<rect x="412.6" y="624.5" transform="matrix(-0.2588 0.9659 -0.9659 -0.2588 1172.427 351.4341)" width="77.6" height="2"/>
		</g>
	</g>
</g>
</svg>
